<svg width="40" height="43" viewBox="0 0 40 43" fill="none" xmlns="http://www.w3.org/2000/svg">
<path d="M8.94667 4.20052H29.2322C31.0695 4.20052 32.3962 5.89386 31.8922 7.59788L29.6869 15.0646C29.3468 16.2113 28.2615 17.0006 27.0268 17.0006H14.8161C13.58 17.0006 12.4934 16.21 12.1547 15.0646L8.94667 4.20052ZM8.94667 4.20052L8 1.00049M26.0002 25.0007C26.5306 25.0007 27.0393 24.79 27.4144 24.4149C27.7895 24.0398 28.0002 23.5311 28.0002 23.0007C28.0002 22.4702 27.7895 21.9615 27.4144 21.5865C27.0393 21.2114 26.5306 21.0007 26.0002 21.0007C25.4697 21.0007 24.961 21.2114 24.5859 21.5865C24.2109 21.9615 24.0001 22.4702 24.0001 23.0007C24.0001 23.5311 24.2109 24.0398 24.5859 24.4149C24.961 24.79 25.4697 25.0007 26.0002 25.0007ZM15.3334 25.0007C15.8638 25.0007 16.3725 24.79 16.7476 24.4149C17.1227 24.0398 17.3334 23.5311 17.3334 23.0007C17.3334 22.4702 17.1227 21.9615 16.7476 21.5865C16.3725 21.2114 15.8638 21.0007 15.3334 21.0007C14.803 21.0007 14.2942 21.2114 13.9192 21.5865C13.5441 21.9615 13.3334 22.4702 13.3334 23.0007C13.3334 23.5311 13.5441 24.0398 13.9192 24.4149C14.2942 24.79 14.803 25.0007 15.3334 25.0007Z" stroke="#3A3938" stroke-width="2.00002" stroke-linecap="round" stroke-linejoin="round"/>
<path d="M15.8078 39.2245C15.8718 39.2245 15.9278 39.2505 15.9758 39.3025L16.4378 39.8005C16.0858 40.2085 15.6578 40.5265 15.1538 40.7545C14.6538 40.9825 14.0478 41.0965 13.3358 41.0965C12.7198 41.0965 12.1598 40.9905 11.6558 40.7785C11.1518 40.5625 10.7218 40.2625 10.3658 39.8785C10.0098 39.4905 9.73383 39.0265 9.53783 38.4865C9.34183 37.9465 9.24383 37.3525 9.24383 36.7045C9.24383 36.0565 9.34583 35.4625 9.54983 34.9225C9.75383 34.3825 10.0398 33.9185 10.4078 33.5305C10.7798 33.1425 11.2238 32.8425 11.7398 32.6305C12.2558 32.4145 12.8258 32.3065 13.4498 32.3065C14.0618 32.3065 14.6018 32.4045 15.0698 32.6005C15.5378 32.7965 15.9498 33.0625 16.3058 33.3985L15.9218 33.9325C15.8978 33.9725 15.8658 34.0065 15.8258 34.0345C15.7898 34.0585 15.7398 34.0705 15.6758 34.0705C15.6038 34.0705 15.5158 34.0325 15.4118 33.9565C15.3078 33.8765 15.1718 33.7885 15.0038 33.6925C14.8358 33.5965 14.6258 33.5105 14.3738 33.4345C14.1218 33.3545 13.8118 33.3145 13.4438 33.3145C12.9998 33.3145 12.5938 33.3925 12.2258 33.5485C11.8578 33.7005 11.5398 33.9225 11.2718 34.2145C11.0078 34.5065 10.8018 34.8625 10.6538 35.2825C10.5058 35.7025 10.4318 36.1765 10.4318 36.7045C10.4318 37.2405 10.5078 37.7185 10.6598 38.1385C10.8158 38.5585 11.0258 38.9145 11.2898 39.2065C11.5578 39.4945 11.8718 39.7145 12.2318 39.8665C12.5958 40.0185 12.9878 40.0945 13.4078 40.0945C13.6638 40.0945 13.8938 40.0805 14.0978 40.0525C14.3058 40.0205 14.4958 39.9725 14.6678 39.9085C14.8438 39.8445 15.0058 39.7645 15.1538 39.6685C15.3058 39.5685 15.4558 39.4505 15.6038 39.3145C15.6718 39.2545 15.7398 39.2245 15.8078 39.2245ZM20.8295 38.2645C20.3375 38.2805 19.9175 38.3205 19.5695 38.3845C19.2255 38.4445 18.9435 38.5245 18.7235 38.6245C18.5075 38.7245 18.3495 38.8425 18.2495 38.9785C18.1535 39.1145 18.1055 39.2665 18.1055 39.4345C18.1055 39.5945 18.1315 39.7325 18.1835 39.8485C18.2355 39.9645 18.3055 40.0605 18.3935 40.1365C18.4855 40.2085 18.5915 40.2625 18.7115 40.2985C18.8355 40.3305 18.9675 40.3465 19.1075 40.3465C19.2955 40.3465 19.4675 40.3285 19.6235 40.2925C19.7795 40.2525 19.9255 40.1965 20.0615 40.1245C20.2015 40.0525 20.3335 39.9665 20.4575 39.8665C20.5855 39.7665 20.7095 39.6525 20.8295 39.5245V38.2645ZM17.3795 35.7805C17.7155 35.4565 18.0775 35.2145 18.4655 35.0545C18.8535 34.8945 19.2835 34.8145 19.7555 34.8145C20.0955 34.8145 20.3975 34.8705 20.6615 34.9825C20.9255 35.0945 21.1475 35.2505 21.3275 35.4505C21.5075 35.6505 21.6435 35.8925 21.7355 36.1765C21.8275 36.4605 21.8735 36.7725 21.8735 37.1125V41.0005H21.3995C21.2955 41.0005 21.2155 40.9845 21.1595 40.9525C21.1035 40.9165 21.0595 40.8485 21.0275 40.7485L20.9075 40.1725C20.7475 40.3205 20.5915 40.4525 20.4395 40.5685C20.2875 40.6805 20.1275 40.7765 19.9595 40.8565C19.7915 40.9325 19.6115 40.9905 19.4195 41.0305C19.2315 41.0745 19.0215 41.0965 18.7895 41.0965C18.5535 41.0965 18.3315 41.0645 18.1235 41.0005C17.9155 40.9325 17.7335 40.8325 17.5775 40.7005C17.4255 40.5685 17.3035 40.4025 17.2115 40.2025C17.1235 39.9985 17.0795 39.7585 17.0795 39.4825C17.0795 39.2425 17.1455 39.0125 17.2775 38.7925C17.4095 38.5685 17.6235 38.3705 17.9195 38.1985C18.2155 38.0265 18.6015 37.8865 19.0775 37.7785C19.5535 37.6665 20.1375 37.6025 20.8295 37.5865V37.1125C20.8295 36.6405 20.7275 36.2845 20.5235 36.0445C20.3195 35.8005 20.0215 35.6785 19.6295 35.6785C19.3655 35.6785 19.1435 35.7125 18.9635 35.7805C18.7875 35.8445 18.6335 35.9185 18.5015 36.0025C18.3735 36.0825 18.2615 36.1565 18.1655 36.2245C18.0735 36.2885 17.9815 36.3205 17.8895 36.3205C17.8175 36.3205 17.7555 36.3025 17.7035 36.2665C17.6515 36.2265 17.6075 36.1785 17.5715 36.1225L17.3795 35.7805ZM24.5143 36.1405C24.7063 35.7245 24.9423 35.4005 25.2223 35.1685C25.5023 34.9325 25.8443 34.8145 26.2483 34.8145C26.3763 34.8145 26.4983 34.8285 26.6143 34.8565C26.7343 34.8845 26.8403 34.9285 26.9323 34.9885L26.8543 35.7865C26.8303 35.8865 26.7703 35.9365 26.6743 35.9365C26.6183 35.9365 26.5363 35.9245 26.4283 35.9005C26.3203 35.8765 26.1983 35.8645 26.0623 35.8645C25.8703 35.8645 25.6983 35.8925 25.5463 35.9485C25.3983 36.0045 25.2643 36.0885 25.1443 36.2005C25.0283 36.3085 24.9223 36.4445 24.8263 36.6085C24.7343 36.7685 24.6503 36.9525 24.5743 37.1605V41.0005H23.5003V34.9225H24.1123C24.2283 34.9225 24.3083 34.9445 24.3523 34.9885C24.3963 35.0325 24.4263 35.1085 24.4423 35.2165L24.5143 36.1405ZM29.7374 41.0965C29.2574 41.0965 28.8874 40.9625 28.6274 40.6945C28.3714 40.4265 28.2434 40.0405 28.2434 39.5365V35.8165H27.5114C27.4474 35.8165 27.3934 35.7985 27.3494 35.7625C27.3054 35.7225 27.2834 35.6625 27.2834 35.5825V35.1565L28.2794 35.0305L28.5254 33.1525C28.5374 33.0925 28.5634 33.0445 28.6034 33.0085C28.6474 32.9685 28.7034 32.9485 28.7714 32.9485H29.3114V35.0425H31.0694V35.8165H29.3114V39.4645C29.3114 39.7205 29.3734 39.9105 29.4974 40.0345C29.6214 40.1585 29.7814 40.2205 29.9774 40.2205C30.0894 40.2205 30.1854 40.2065 30.2654 40.1785C30.3494 40.1465 30.4214 40.1125 30.4814 40.0765C30.5414 40.0405 30.5914 40.0085 30.6314 39.9805C30.6754 39.9485 30.7134 39.9325 30.7454 39.9325C30.8014 39.9325 30.8514 39.9665 30.8954 40.0345L31.2074 40.5445C31.0234 40.7165 30.8014 40.8525 30.5414 40.9525C30.2814 41.0485 30.0134 41.0965 29.7374 41.0965Z" fill="#3A3938"/>
</svg>
