<svg width="26" height="26" viewBox="0 0 26 26" fill="none" xmlns="http://www.w3.org/2000/svg">
<path d="M1 0.25H4.02051C4.43472 0.25 4.77051 0.585787 4.77051 1V4.02051C4.77051 4.43472 4.43472 4.77051 4.02051 4.77051H0.25V1C0.25 0.585786 0.585787 0.25 1 0.25Z" stroke="#7E7C79" stroke-width="0.5"/>
<path d="M1 7.19238H4.02051C4.43472 7.19238 4.77051 7.52817 4.77051 7.94238V10.9629C4.77051 11.3771 4.43472 11.7129 4.02051 11.7129H0.25V7.94238C0.25 7.52817 0.585787 7.19238 1 7.19238Z" stroke="#7E7C79" stroke-width="0.5"/>
<path d="M1 14.1348H4.02051C4.43472 14.1348 4.77051 14.4706 4.77051 14.8848V17.9053C4.77051 18.3195 4.43472 18.6553 4.02051 18.6553H0.25V14.8848C0.25 14.4706 0.585787 14.1348 1 14.1348Z" stroke="#7E7C79" stroke-width="0.5"/>
<path d="M1 21.0771H4.02051C4.43472 21.0771 4.77051 21.4129 4.77051 21.8271V24.8477C4.77051 25.2619 4.43472 25.5977 4.02051 25.5977H0.25V21.8271C0.25 21.4129 0.585787 21.0771 1 21.0771Z" stroke="#7E7C79" stroke-width="0.5"/>
<path d="M7.94141 0.25H10.9619C11.3761 0.25 11.7119 0.585787 11.7119 1V4.02051C11.7119 4.43472 11.3761 4.77051 10.9619 4.77051H7.19141V1C7.19141 0.585786 7.52719 0.25 7.94141 0.25Z" stroke="#7E7C79" stroke-width="0.5"/>
<path d="M7.94141 7.19238H10.9619C11.3761 7.19238 11.7119 7.52817 11.7119 7.94238V10.9629C11.7119 11.3771 11.3761 11.7129 10.9619 11.7129H7.19141V7.94238C7.19141 7.52817 7.52719 7.19238 7.94141 7.19238Z" stroke="#7E7C79" stroke-width="0.5"/>
<path d="M7.94141 14.1348H10.9619C11.3761 14.1348 11.7119 14.4706 11.7119 14.8848V17.9053C11.7119 18.3195 11.3761 18.6553 10.9619 18.6553H7.19141V14.8848C7.19141 14.4706 7.52719 14.1348 7.94141 14.1348Z" stroke="#7E7C79" stroke-width="0.5"/>
<path d="M7.94141 21.0771H10.9619C11.3761 21.0771 11.7119 21.4129 11.7119 21.8271V24.8477C11.7119 25.2619 11.3761 25.5977 10.9619 25.5977H7.19141V21.8271C7.19141 21.4129 7.52719 21.0771 7.94141 21.0771Z" stroke="#7E7C79" stroke-width="0.5"/>
<path d="M14.8828 0.25H17.9033C18.3175 0.25 18.6533 0.585787 18.6533 1V4.02051C18.6533 4.43472 18.3175 4.77051 17.9033 4.77051H14.1328V1C14.1328 0.585786 14.4686 0.25 14.8828 0.25Z" stroke="#7E7C79" stroke-width="0.5"/>
<path d="M14.8828 7.19238H17.9033C18.3175 7.19238 18.6533 7.52817 18.6533 7.94238V10.9629C18.6533 11.3771 18.3175 11.7129 17.9033 11.7129H14.1328V7.94238C14.1328 7.52817 14.4686 7.19238 14.8828 7.19238Z" stroke="#7E7C79" stroke-width="0.5"/>
<path d="M14.8828 14.1348H17.9033C18.3175 14.1348 18.6533 14.4706 18.6533 14.8848V17.9053C18.6533 18.3195 18.3175 18.6553 17.9033 18.6553H14.1328V14.8848C14.1328 14.4706 14.4686 14.1348 14.8828 14.1348Z" stroke="#7E7C79" stroke-width="0.5"/>
<path d="M14.8828 21.0771H17.9033C18.3175 21.0771 18.6533 21.4129 18.6533 21.8271V24.8477C18.6533 25.2619 18.3175 25.5977 17.9033 25.5977H14.1328V21.8271C14.1328 21.4129 14.4686 21.0771 14.8828 21.0771Z" stroke="#7E7C79" stroke-width="0.5"/>
<path d="M21.832 0.25H24.8525C25.2668 0.25 25.6025 0.585787 25.6025 1V4.02051C25.6025 4.43472 25.2668 4.77051 24.8525 4.77051H21.082V1C21.082 0.585786 21.4178 0.25 21.832 0.25Z" stroke="#7E7C79" stroke-width="0.5"/>
<path d="M21.832 7.19238H24.8525C25.2668 7.19238 25.6025 7.52817 25.6025 7.94238V10.9629C25.6025 11.3771 25.2668 11.7129 24.8525 11.7129H21.082V7.94238C21.082 7.52817 21.4178 7.19238 21.832 7.19238Z" stroke="#7E7C79" stroke-width="0.5"/>
<path d="M21.832 14.1348H24.8525C25.2668 14.1348 25.6025 14.4706 25.6025 14.8848V17.9053C25.6025 18.3195 25.2668 18.6553 24.8525 18.6553H21.082V14.8848C21.082 14.4706 21.4178 14.1348 21.832 14.1348Z" stroke="#7E7C79" stroke-width="0.5"/>
<path d="M21.832 21.0771H24.8525C25.2668 21.0771 25.6025 21.4129 25.6025 21.8271V24.8477C25.6025 25.2619 25.2668 25.5977 24.8525 25.5977H21.082V21.8271C21.082 21.4129 21.4178 21.0771 21.832 21.0771Z" stroke="#7E7C79" stroke-width="0.5"/>
</svg>
