<svg width="40" height="40" viewBox="0 0 40 40" fill="none" xmlns="http://www.w3.org/2000/svg">
<path d="M15.5167 18.9917C16.7167 21.35 18.65 23.275 21.0083 24.4833L22.8417 22.65C23.0667 22.425 23.4 22.35 23.6917 22.45C24.625 22.7583 25.6333 22.925 26.6667 22.925C27.125 22.925 27.5 23.3 27.5 23.7583V26.6667C27.5 27.125 27.125 27.5 26.6667 27.5C18.8417 27.5 12.5 21.1583 12.5 13.3333C12.5 12.875 12.875 12.5 13.3333 12.5H16.25C16.7083 12.5 17.0833 12.875 17.0833 13.3333C17.0833 14.375 17.25 15.375 17.5583 16.3083C17.65 16.6 17.5833 16.925 17.35 17.1583L15.5167 18.9917Z" fill="#3A3938"/>
<circle cx="20" cy="20" r="19.5" stroke="#3A3938"/>
</svg>
