<svg width="26" height="26" viewBox="0 0 26 26" fill="none" xmlns="http://www.w3.org/2000/svg">
<path d="M3 0.25H8.84668C10.3655 0.25 11.5967 1.48122 11.5967 3V8.84668C11.5967 10.3655 10.3655 11.5967 8.84668 11.5967H0.25V3C0.25 1.48122 1.48122 0.25 3 0.25Z" stroke="#7E7C79" stroke-width="0.5"/>
<path d="M17.1602 0.25H23.0068C24.5256 0.25 25.7568 1.48122 25.7568 3V8.84668C25.7568 10.3655 24.5256 11.5967 23.0068 11.5967H14.4102V3C14.4102 1.48122 15.6414 0.25 17.1602 0.25Z" stroke="#7E7C79" stroke-width="0.5"/>
<path d="M3 14.251H8.84668C10.3655 14.251 11.5967 15.4822 11.5967 17.001V22.8477C11.5967 24.3664 10.3655 25.5977 8.84668 25.5977H0.25V17.001C0.25 15.4822 1.48122 14.251 3 14.251Z" stroke="#7E7C79" stroke-width="0.5"/>
<path d="M17.1602 14.251H23.0068C24.5256 14.251 25.7568 15.4822 25.7568 17.001V22.8477C25.7568 24.3664 24.5256 25.5977 23.0068 25.5977H14.4102V17.001C14.4102 15.4822 15.6414 14.251 17.1602 14.251Z" stroke="#7E7C79" stroke-width="0.5"/>
</svg>
