<svg width="13" height="16" viewBox="0 0 13 16" fill="none" xmlns="http://www.w3.org/2000/svg">
<path d="M11.1563 5.3217L10.5029 11.8535C10.4041 12.8436 10.3551 13.3383 10.1296 13.7124C9.93176 14.0417 9.64082 14.305 9.29347 14.4691C8.89914 14.655 8.40292 14.655 7.40736 14.655H5.57181C4.57703 14.655 4.08003 14.655 3.68569 14.4684C3.33806 14.3044 3.04684 14.041 2.84881 13.7116C2.62481 13.3383 2.57503 12.8436 2.47547 11.8535L1.82292 5.3217M7.65625 10.3773V6.48836M5.32292 10.3773V6.48836M0.65625 3.37725H4.24569M4.24569 3.37725L4.54592 1.29903C4.63303 0.921029 4.94725 0.655029 5.30814 0.655029H7.67103C8.03192 0.655029 8.34536 0.921029 8.43325 1.29903L8.73347 3.37725M4.24569 3.37725H8.73347M8.73347 3.37725H12.3229" stroke="#3A3938" stroke-width="1.31" stroke-linecap="round" stroke-linejoin="round"/>
</svg>
