<svg width="20" height="21" viewBox="0 0 20 21" fill="none" xmlns="http://www.w3.org/2000/svg">
<path d="M10.8108 8.41383L7.3444 11.8802C7.23336 11.9913 7.17784 12.1222 7.17784 12.2731C7.17784 12.4239 7.23362 12.5551 7.34518 12.6667C7.45675 12.7783 7.59163 12.8346 7.74981 12.8356C7.90799 12.8367 8.04496 12.7798 8.16071 12.6651L11.6114 9.21443L11.6114 11.9894C11.6114 12.1361 11.6674 12.2602 11.7795 12.3618C11.8916 12.4635 12.021 12.5143 12.1677 12.5143C12.3143 12.5143 12.4419 12.4601 12.5503 12.3516C12.6587 12.2432 12.7113 12.1172 12.7082 11.9737L12.6941 8.23548C12.6935 7.98145 12.6087 7.76984 12.4395 7.60066C12.2703 7.43148 12.0587 7.34715 11.8047 7.34767L8.05151 7.34689C7.90485 7.34689 7.78045 7.39795 7.67831 7.50009C7.5767 7.60171 7.52589 7.72584 7.52589 7.8725C7.52589 8.01916 7.58036 8.14696 7.68931 8.25591C7.79826 8.36486 7.92397 8.41724 8.06643 8.41305L10.8108 8.41383ZM2.9352 17.0798C1.95782 16.1024 1.224 14.9978 0.733738 13.7658C0.244524 12.5339 -0.000345519 11.2813 -0.000868308 10.008C-0.00139228 8.73465 0.242428 7.48255 0.730594 6.25166C1.21876 5.02077 1.95206 3.91611 2.93048 2.93768C3.90891 1.95926 5.01383 1.2257 6.24524 0.737009C7.47665 0.247272 8.7285 0.00161795 10.0008 4.63783e-05C11.273 -0.00152486 12.5254 0.242558 13.7579 0.732295C14.9903 1.22203 16.0952 1.95559 17.0726 2.93297C18.05 3.91035 18.7836 5.01527 19.2733 6.24773C19.763 7.47914 20.0084 8.73124 20.0095 10.004C20.0105 11.2768 19.7664 12.5292 19.2772 13.7611C18.788 14.9931 18.0547 16.0977 17.0773 17.0751C16.1 18.0525 14.9953 18.7863 13.7634 19.2766C12.5314 19.7668 11.2788 20.0117 10.0055 20.0112C8.73216 20.0106 7.48006 19.7668 6.24917 19.2797C5.01828 18.7926 3.91362 18.0593 2.9352 17.0798Z" fill="#FCF8F3"/>
</svg>
