<svg width="11" height="10" viewBox="0 0 11 10" fill="none" xmlns="http://www.w3.org/2000/svg">
<path d="M5.25116 8.26229L2.45807 9.94891C2.376 9.98944 2.29982 10.0059 2.22955 9.99816C2.15979 9.98995 2.09182 9.96584 2.02565 9.92583C1.95896 9.88479 1.90869 9.82683 1.87484 9.75194C1.84098 9.67704 1.8379 9.59523 1.8656 9.50648L2.60889 6.34407L0.150511 4.21271C0.0812606 4.15628 0.0356069 4.08883 0.0135495 4.01034C-0.00850787 3.93186 -0.00363468 3.85671 0.028169 3.7849C0.0599727 3.71308 0.102292 3.65409 0.155127 3.60792C0.208475 3.5633 0.28029 3.53303 0.370572 3.51713L3.61455 3.23397L4.87952 0.239297C4.9144 0.154659 4.96467 0.0936157 5.03033 0.0561694C5.09599 0.0187231 5.1696 0 5.25116 0C5.33272 0 5.40658 0.0187231 5.47276 0.0561694C5.53893 0.0936157 5.58894 0.154659 5.6228 0.239297L6.88776 3.23397L10.131 3.51713C10.2218 3.53252 10.2938 3.56304 10.3472 3.60869C10.4005 3.65383 10.4431 3.71257 10.4749 3.7849C10.5062 3.85671 10.5108 3.93186 10.4888 4.01034C10.4667 4.08883 10.4211 4.15628 10.3518 4.21271L7.89343 6.34407L8.63671 9.50648C8.66544 9.5942 8.66262 9.67576 8.62825 9.75117C8.59388 9.82657 8.54335 9.88454 8.47667 9.92506C8.41101 9.9661 8.34304 9.99046 8.27276 9.99816C8.203 10.0059 8.12708 9.98944 8.04501 9.94891L5.25116 8.26229Z" fill="#4FAE32"/>
</svg>
