<svg width="100" height="100" viewBox="0 0 100 100" fill="none" xmlns="http://www.w3.org/2000/svg">
<path fill-rule="evenodd" clip-rule="evenodd" d="M50 100C22.385 100 0 77.615 0 50C0 22.385 22.385 0 50 0C77.615 0 100 22.385 100 50C100 77.615 77.615 100 50 100ZM50 94C61.6695 94 72.8611 89.3643 81.1127 81.1127C89.3643 72.8611 94 61.6695 94 50C94 38.3305 89.3643 27.1389 81.1127 18.8873C72.8611 10.6357 61.6695 6 50 6C38.3305 6 27.1389 10.6357 18.8873 18.8873C10.6357 27.1389 6 38.3305 6 50C6 61.6695 10.6357 72.8611 18.8873 81.1127C27.1389 89.3643 38.3305 94 50 94ZM44.14 62.79L71.0624 35.8722C72.2345 34.7003 74.1348 34.701 75.3062 35.8737C76.4766 37.0454 76.476 38.944 75.3049 40.1151L47.675 67.745C46.7374 68.6824 45.4658 69.2089 44.14 69.2089C42.8142 69.2089 41.5426 68.6824 40.605 67.745L27.1215 54.2528C25.9497 53.0803 25.95 51.18 27.1222 50.0078C28.2946 48.8354 30.1954 48.8354 31.3678 50.0078L44.145 62.785L44.14 62.79Z" fill="#4FAE32"/>
</svg>
