<svg width="24" height="24" viewBox="0 0 24 24" fill="none" xmlns="http://www.w3.org/2000/svg">
<path d="M1.73211 3.73363H19.7637C21.3969 3.73363 22.5761 5.23883 22.1281 6.75351L20.1678 13.3906C19.8656 14.4099 18.9009 15.1115 17.8034 15.1115H6.94934C5.85067 15.1115 4.88473 14.4087 4.58369 13.3906L1.73211 3.73363ZM1.73211 3.73363L0.890625 0.88916M16.8908 22.2227C17.3623 22.2227 17.8145 22.0354 18.1479 21.702C18.4813 21.3686 18.6686 20.9164 18.6686 20.4449C18.6686 19.9734 18.4813 19.5212 18.1479 19.1878C17.8145 18.8544 17.3623 18.6671 16.8908 18.6671C16.4193 18.6671 15.9671 18.8544 15.6337 19.1878C15.3003 19.5212 15.113 19.9734 15.113 20.4449C15.113 20.9164 15.3003 21.3686 15.6337 21.702C15.9671 22.0354 16.4193 22.2227 16.8908 22.2227ZM7.4092 22.2227C7.8807 22.2227 8.33289 22.0354 8.66629 21.702C8.99969 21.3686 9.18699 20.9164 9.18699 20.4449C9.18699 19.9734 8.99969 19.5212 8.66629 19.1878C8.33289 18.8544 7.8807 18.6671 7.4092 18.6671C6.9377 18.6671 6.48551 18.8544 6.15211 19.1878C5.81871 19.5212 5.63141 19.9734 5.63141 20.4449C5.63141 20.9164 5.81871 21.3686 6.15211 21.702C6.48551 22.0354 6.9377 22.2227 7.4092 22.2227Z" stroke="#3A3938" stroke-width="1.77779" stroke-linecap="round" stroke-linejoin="round"/>
</svg>
