<svg width="40" height="40" viewBox="0 0 40 40" fill="none" xmlns="http://www.w3.org/2000/svg">
<path d="M19.9993 19.5832C19.4468 19.5832 18.9169 19.3637 18.5262 18.973C18.1355 18.5823 17.916 18.0524 17.916 17.4998C17.916 16.9473 18.1355 16.4174 18.5262 16.0267C18.9169 15.636 19.4468 15.4165 19.9993 15.4165C20.5519 15.4165 21.0818 15.636 21.4725 16.0267C21.8632 16.4174 22.0827 16.9473 22.0827 17.4998C22.0827 17.7734 22.0288 18.0443 21.9241 18.2971C21.8194 18.5499 21.6659 18.7795 21.4725 18.973C21.279 19.1664 21.0494 19.3199 20.7966 19.4246C20.5438 19.5293 20.2729 19.5832 19.9993 19.5832ZM19.9993 11.6665C18.4523 11.6665 16.9685 12.2811 15.8746 13.375C14.7806 14.469 14.166 15.9527 14.166 17.4998C14.166 21.8748 19.9993 28.3332 19.9993 28.3332C19.9993 28.3332 25.8327 21.8748 25.8327 17.4998C25.8327 15.9527 25.2181 14.469 24.1241 13.375C23.0302 12.2811 21.5464 11.6665 19.9993 11.6665Z" fill="#3A3938"/>
<circle cx="20" cy="20" r="19.5" stroke="#3A3938"/>
</svg>
