<svg width="40" height="40" viewBox="0 0 40 40" fill="none" xmlns="http://www.w3.org/2000/svg">
<circle cx="20" cy="20" r="19.5" stroke="#3A3938"/>
<path d="M26.666 13.3335H13.3327C12.416 13.3335 11.6743 14.0835 11.6743 15.0002L11.666 25.0002C11.666 25.9168 12.416 26.6668 13.3327 26.6668H26.666C27.5827 26.6668 28.3327 25.9168 28.3327 25.0002V15.0002C28.3327 14.0835 27.5827 13.3335 26.666 13.3335ZM26.3327 16.8752L20.441 20.5585C20.1743 20.7252 19.8243 20.7252 19.5577 20.5585L13.666 16.8752C13.5825 16.8283 13.5093 16.7649 13.4509 16.6889C13.3926 16.6129 13.3502 16.5258 13.3265 16.433C13.3028 16.3401 13.2981 16.2434 13.3128 16.1488C13.3275 16.0541 13.3613 15.9633 13.4121 15.8821C13.4629 15.8008 13.5296 15.7307 13.6083 15.676C13.687 15.6213 13.7759 15.5831 13.8698 15.5637C13.9636 15.5444 14.0604 15.5443 14.1543 15.5635C14.2482 15.5826 14.3372 15.6206 14.416 15.6752L19.9993 19.1668L25.5827 15.6752C25.6615 15.6206 25.7505 15.5826 25.8444 15.5635C25.9383 15.5443 26.0351 15.5444 26.1289 15.5637C26.2228 15.5831 26.3117 15.6213 26.3904 15.676C26.4691 15.7307 26.5358 15.8008 26.5866 15.8821C26.6374 15.9633 26.6712 16.0541 26.6859 16.1488C26.7006 16.2434 26.6959 16.3401 26.6722 16.433C26.6485 16.5258 26.6061 16.6129 26.5478 16.6889C26.4894 16.7649 26.4162 16.8283 26.3327 16.8752Z" fill="#3A3938"/>
</svg>
