<svg width="19" height="19" viewBox="0 0 19 19" fill="none" xmlns="http://www.w3.org/2000/svg">
<path d="M0.75 15.6249C0.75 14.4977 1.19777 13.4166 1.9948 12.6196C2.79183 11.8225 3.87283 11.3748 5 11.3748H13.5C14.6272 11.3748 15.7082 11.8225 16.5052 12.6196C17.3022 13.4166 17.75 14.4977 17.75 15.6249C17.75 16.1885 17.5261 16.729 17.1276 17.1275C16.7291 17.526 16.1886 17.7499 15.625 17.7499H2.875C2.31141 17.7499 1.77091 17.526 1.3724 17.1275C0.973883 16.729 0.75 16.1885 0.75 15.6249Z" stroke="#3A3938" stroke-width="1.5" stroke-linejoin="round"/>
<path d="M9.25 7.12518C11.0104 7.12518 12.4375 5.69805 12.4375 3.93759C12.4375 2.17713 11.0104 0.75 9.25 0.75C7.48959 0.75 6.0625 2.17713 6.0625 3.93759C6.0625 5.69805 7.48959 7.12518 9.25 7.12518Z" stroke="#3A3938" stroke-width="1.5"/>
</svg>
