<svg width="26" height="26" viewBox="0 0 26 26" fill="none" xmlns="http://www.w3.org/2000/svg">
<path d="M2 0.25H5.30176C6.26825 0.250005 7.05176 1.03351 7.05176 2V5.30176C7.05175 6.26825 6.26825 7.05175 5.30176 7.05176H0.25V2C0.250001 1.0335 1.0335 0.25 2 0.25Z" fill="#7E7C79" stroke="#7E7C79" stroke-width="0.5"/>
<path d="M11.3438 0.25H14.6455C15.612 0.250005 16.3955 1.03351 16.3955 2V5.30176C16.3955 6.26825 15.612 7.05175 14.6455 7.05176H9.59375V2C9.59375 1.0335 10.3773 0.25 11.3438 0.25Z" fill="#7E7C79" stroke="#7E7C79" stroke-width="0.5"/>
<path d="M20.6406 0.25H23.9424C24.9089 0.250005 25.6924 1.03351 25.6924 2V5.30176C25.6924 6.26825 24.9089 7.05175 23.9424 7.05176H18.8906V2C18.8906 1.0335 19.6741 0.25 20.6406 0.25Z" fill="#7E7C79" stroke="#7E7C79" stroke-width="0.5"/>
<path d="M2.01172 9.52295H5.31348C6.27997 9.52295 7.06348 10.3065 7.06348 11.2729V14.5747C7.06347 15.5412 6.27997 16.3247 5.31348 16.3247H0.261719V11.2729C0.26172 10.3065 1.04522 9.52295 2.01172 9.52295Z" fill="#7E7C79" stroke="#7E7C79" stroke-width="0.5"/>
<path d="M11.3555 9.52295H14.6572C15.6237 9.52295 16.4072 10.3065 16.4072 11.2729V14.5747C16.4072 15.5412 15.6237 16.3247 14.6572 16.3247H9.60547V11.2729C9.60547 10.3065 10.389 9.52295 11.3555 9.52295Z" fill="#7E7C79" stroke="#7E7C79" stroke-width="0.5"/>
<path d="M20.6523 9.52295H23.9541C24.9206 9.52295 25.7041 10.3065 25.7041 11.2729V14.5747C25.7041 15.5412 24.9206 16.3247 23.9541 16.3247H18.9023V11.2729C18.9023 10.3065 19.6858 9.52295 20.6523 9.52295Z" fill="#7E7C79" stroke="#7E7C79" stroke-width="0.5"/>
<path d="M2.01172 18.7959H5.31348C6.27997 18.7959 7.06348 19.5794 7.06348 20.5459V23.8477C7.06347 24.8141 6.27997 25.5977 5.31348 25.5977H0.261719V20.5459C0.26172 19.5794 1.04522 18.7959 2.01172 18.7959Z" fill="#7E7C79" stroke="#7E7C79" stroke-width="0.5"/>
<path d="M11.3555 18.7959H14.6572C15.6237 18.7959 16.4072 19.5794 16.4072 20.5459V23.8477C16.4072 24.8141 15.6237 25.5977 14.6572 25.5977H9.60547V20.5459C9.60547 19.5794 10.389 18.7959 11.3555 18.7959Z" fill="#7E7C79" stroke="#7E7C79" stroke-width="0.5"/>
<path d="M20.6523 18.7959H23.9541C24.9206 18.7959 25.7041 19.5794 25.7041 20.5459V23.8477C25.7041 24.8141 24.9206 25.5977 23.9541 25.5977H18.9023V20.5459C18.9023 19.5794 19.6858 18.7959 20.6523 18.7959Z" fill="#7E7C79" stroke="#7E7C79" stroke-width="0.5"/>
</svg>
