<svg width="18" height="18" viewBox="0 0 18 18" fill="none" xmlns="http://www.w3.org/2000/svg">
<g clip-path="url(#clip0_2746_348)">
<path d="M5.78613 3.72622C5.73074 3.78362 5.68563 3.85011 5.65276 3.92279L5.64878 3.9188L0.0671912 16.4923L0.0726653 16.4978C-0.0308449 16.6983 0.142336 17.1064 0.497156 17.4617C0.851977 17.8165 1.26005 17.9897 1.4606 17.8862L1.46557 17.8912L14.0391 12.3091L14.0351 12.3046C14.1082 12.2698 14.1754 12.2275 14.2317 12.1708C15.009 11.3934 13.7484 8.87286 11.417 6.54089C9.08452 4.20893 6.56394 2.94889 5.78613 3.72622Z" fill="#DD2E44"/>
<path d="M6.46989 5.97168L0.207527 16.1764L0.0671912 16.4924L0.0726653 16.4979C-0.0308449 16.6984 0.142336 17.1065 0.497156 17.4618C0.61261 17.5773 0.732542 17.6648 0.849987 17.739L8.46047 8.4599L6.46989 5.97168Z" fill="#EA596E"/>
<path d="M11.4498 6.50242C13.7739 8.82742 15.0642 11.3057 14.3307 12.0382C13.5977 12.7718 11.1194 11.4819 8.79392 9.15785C6.46942 6.83286 5.17952 4.35359 5.91255 3.62056C6.64608 2.88753 9.12435 4.17742 11.4498 6.50242Z" fill="#A0041E"/>
<path d="M9.25131 6.7724C9.14854 6.85506 9.01716 6.89354 8.88604 6.87939C8.45408 6.83261 8.0908 6.68232 7.8365 6.44495C7.56728 6.19364 7.43441 5.85623 7.47073 5.51833C7.53443 4.92514 8.12962 4.38072 9.14431 4.4902C9.53895 4.5325 9.71511 4.4056 9.72109 4.34489C9.72805 4.28467 9.58324 4.12294 9.18861 4.08014C8.75665 4.03336 8.39337 3.88307 8.13857 3.6457C7.86935 3.39438 7.73598 3.05698 7.77281 2.71908C7.8375 2.12589 8.43219 1.58146 9.44589 1.69144C9.73353 1.7223 9.88531 1.66308 9.9495 1.62476C10.0008 1.59341 10.0212 1.56355 10.0232 1.54613C10.0291 1.48592 9.8863 1.32418 9.49067 1.28138C9.35949 1.26711 9.23935 1.20132 9.15666 1.09848C9.07398 0.995638 9.03553 0.864167 9.04976 0.73298C9.05664 0.667994 9.07629 0.605008 9.10758 0.547639C9.13887 0.490269 9.18119 0.439646 9.2321 0.398677C9.28301 0.357708 9.34151 0.327199 9.40425 0.308904C9.46698 0.290609 9.53272 0.284886 9.59767 0.292066C10.6114 0.40105 11.0772 1.05943 11.013 1.65312C10.9483 2.24731 10.3536 2.79074 9.33889 2.68176C9.05126 2.65041 8.90097 2.71012 8.83627 2.74844C8.78502 2.7793 8.76411 2.80965 8.76212 2.82657C8.75565 2.88728 8.89947 3.04852 9.2951 3.09132C10.3088 3.2008 10.7746 3.85869 10.7104 4.45238C10.6462 5.04607 10.0515 5.58999 9.03732 5.48001C8.74968 5.44916 8.5984 5.50888 8.5337 5.5467C8.48195 5.57855 8.46204 5.60841 8.46005 5.62533C8.45358 5.68554 8.5974 5.84728 8.99253 5.89007C9.09038 5.90063 9.1829 5.93997 9.25839 6.00311C9.33389 6.06625 9.38897 6.15035 9.41666 6.24479C9.44436 6.33923 9.44344 6.43976 9.414 6.53367C9.38457 6.62758 9.32795 6.71066 9.25131 6.7724Z" fill="#AA8DD8"/>
<path d="M15.2588 11.3749C16.2406 11.0977 16.9179 11.5357 17.0792 12.1105C17.2404 12.6847 16.8911 13.4118 15.9097 13.688C15.5265 13.7955 15.4116 13.9786 15.427 14.0368C15.4439 14.0956 15.6385 14.1921 16.0207 14.0841C17.002 13.8079 17.6793 14.2458 17.8406 14.8201C18.0028 15.3949 17.6525 16.121 16.6706 16.3977C16.2879 16.5052 16.1725 16.6888 16.1894 16.747C16.2063 16.8052 16.3999 16.9018 16.7826 16.7943C16.8461 16.7747 16.9128 16.7679 16.979 16.7745C17.0451 16.7811 17.1092 16.8009 17.1676 16.8327C17.226 16.8645 17.2774 16.9076 17.3188 16.9596C17.3602 17.0116 17.3908 17.0713 17.4087 17.1353C17.4267 17.1993 17.4316 17.2662 17.4233 17.3322C17.4149 17.3981 17.3935 17.4617 17.3602 17.5192C17.3269 17.5767 17.2824 17.6269 17.2293 17.667C17.1763 17.707 17.1157 17.736 17.0513 17.7523C16.0705 18.0284 15.3927 17.5915 15.2304 17.0162C15.0692 16.442 15.419 15.7159 16.4014 15.4392C16.7846 15.3312 16.8995 15.1486 16.8826 15.0899C16.8667 15.0316 16.6726 14.9346 16.2904 15.0421C15.3081 15.3188 14.6313 14.8818 14.4695 14.3061C14.3078 13.7318 14.6576 13.0057 15.6395 12.7285C16.0217 12.6215 16.1366 12.4374 16.1207 12.3797C16.1038 12.321 15.9102 12.2244 15.5275 12.3319C15.4636 12.3535 15.3959 12.3618 15.3286 12.3563C15.2613 12.3509 15.1959 12.3318 15.1362 12.3003C15.0765 12.2688 15.0239 12.2254 14.9815 12.1729C14.9391 12.1204 14.9078 12.0598 14.8895 11.9948C14.8713 11.9299 14.8664 11.8618 14.8753 11.7949C14.8842 11.728 14.9066 11.6636 14.9411 11.6056C14.9756 11.5476 15.0216 11.4973 15.0762 11.4576C15.1308 11.418 15.193 11.3898 15.2588 11.3749Z" fill="#77B255"/>
<path d="M11.4457 10.033C11.3426 10.0329 11.2422 10.0008 11.1581 9.94115C11.0741 9.88151 11.0106 9.79728 10.9764 9.70006C10.9423 9.60284 10.9391 9.49741 10.9673 9.39831C10.9956 9.2992 11.0539 9.2113 11.1342 9.14671C11.2427 9.05963 13.8304 7.02724 17.4876 7.55027C17.5538 7.55775 17.6178 7.57843 17.6758 7.61109C17.7338 7.64375 17.7847 7.68772 17.8254 7.7404C17.8661 7.79308 17.8959 7.8534 17.9129 7.91778C17.9299 7.98216 17.9338 8.0493 17.9243 8.11521C17.9149 8.18112 17.8923 8.24448 17.858 8.30152C17.8236 8.35856 17.7782 8.40812 17.7243 8.44727C17.6705 8.48643 17.6093 8.51438 17.5445 8.52947C17.4796 8.54455 17.4124 8.54647 17.3468 8.53511C14.1156 8.07628 11.7796 9.90562 11.7567 9.92403C11.6684 9.99463 11.5587 10.0331 11.4457 10.033Z" fill="#AA8DD8"/>
<path d="M2.86521 7.96234C2.78764 7.96235 2.71114 7.94422 2.64183 7.90941C2.57251 7.8746 2.51229 7.82407 2.46598 7.76184C2.41966 7.69962 2.38853 7.62744 2.37507 7.55105C2.36162 7.47466 2.3662 7.39618 2.38846 7.32187C2.95229 5.44426 3.46337 2.44794 2.83535 1.66664C2.76518 1.57806 2.65918 1.49097 2.41633 1.50938C1.94954 1.54521 1.99383 2.53005 1.99433 2.54C2.00065 2.60593 1.99374 2.67246 1.97402 2.73569C1.9543 2.79891 1.92216 2.85757 1.87947 2.90821C1.83679 2.95885 1.78443 3.00046 1.72545 3.03061C1.66648 3.06075 1.60208 3.07882 1.53604 3.08376C1.46999 3.08869 1.40362 3.0804 1.34082 3.05935C1.27803 3.03831 1.22006 3.00494 1.17032 2.9612C1.12059 2.91746 1.08008 2.86424 1.05118 2.80464C1.02228 2.74505 1.00557 2.68029 1.00202 2.61415C0.950766 1.9279 1.16426 0.606157 2.34168 0.517078C2.8672 0.477267 3.30363 0.659902 3.61167 1.04309C4.79159 2.51164 3.59376 6.76899 3.34195 7.60802C3.31113 7.71048 3.24812 7.80029 3.16224 7.86411C3.07636 7.92794 2.9722 7.96238 2.86521 7.96234Z" fill="#77B255"/>
<path d="M12.6898 5.47389C13.1021 5.47389 13.4363 5.13969 13.4363 4.72742C13.4363 4.31516 13.1021 3.98096 12.6898 3.98096C12.2776 3.98096 11.9434 4.31516 11.9434 4.72742C11.9434 5.13969 12.2776 5.47389 12.6898 5.47389Z" fill="#5C913B"/>
<path d="M0.99529 9.95298C1.54497 9.95298 1.99058 9.50738 1.99058 8.95769C1.99058 8.40801 1.54497 7.9624 0.99529 7.9624C0.445606 7.9624 0 8.40801 0 8.95769C0 9.50738 0.445606 9.95298 0.99529 9.95298Z" fill="#9266CC"/>
<path d="M16.1732 10.4505C16.5855 10.4505 16.9197 10.1162 16.9197 9.70399C16.9197 9.29172 16.5855 8.95752 16.1732 8.95752C15.761 8.95752 15.4268 9.29172 15.4268 9.70399C15.4268 10.1162 15.761 10.4505 16.1732 10.4505Z" fill="#5C913B"/>
<path d="M11.6947 16.4221C12.107 16.4221 12.4412 16.0879 12.4412 15.6757C12.4412 15.2634 12.107 14.9292 11.6947 14.9292C11.2824 14.9292 10.9482 15.2634 10.9482 15.6757C10.9482 16.0879 11.2824 16.4221 11.6947 16.4221Z" fill="#5C913B"/>
<path d="M13.9338 2.9857C14.4834 2.9857 14.9291 2.54009 14.9291 1.99041C14.9291 1.44072 14.4834 0.995117 13.9338 0.995117C13.3841 0.995117 12.9385 1.44072 12.9385 1.99041C12.9385 2.54009 13.3841 2.9857 13.9338 2.9857Z" fill="#FFCC4D"/>
<path d="M16.1732 4.97633C16.5855 4.97633 16.9197 4.64213 16.9197 4.22987C16.9197 3.8176 16.5855 3.4834 16.1732 3.4834C15.761 3.4834 15.4268 3.8176 15.4268 4.22987C15.4268 4.64213 15.761 4.97633 16.1732 4.97633Z" fill="#FFCC4D"/>
<path d="M14.6801 6.96706C15.0923 6.96706 15.4265 6.63285 15.4265 6.22059C15.4265 5.80833 15.0923 5.47412 14.6801 5.47412C14.2678 5.47412 13.9336 5.80833 13.9336 6.22059C13.9336 6.63285 14.2678 6.96706 14.6801 6.96706Z" fill="#FFCC4D"/>
<path d="M3.7328 12.4412C4.14506 12.4412 4.47926 12.107 4.47926 11.6947C4.47926 11.2824 4.14506 10.9482 3.7328 10.9482C3.32053 10.9482 2.98633 11.2824 2.98633 11.6947C2.98633 12.107 3.32053 12.4412 3.7328 12.4412Z" fill="#FFCC4D"/>
</g>
<defs>
<clipPath id="clip0_2746_348">
<rect width="17.9152" height="17.9152" rx="8" fill="white"/>
</clipPath>
</defs>
</svg>
