<svg width="16" height="16" viewBox="0 0 16 16" fill="none" xmlns="http://www.w3.org/2000/svg">
<path d="M8.64942 6.73107L5.8763 9.50418C5.78747 9.59301 5.74305 9.69777 5.74305 9.81845C5.74305 9.93913 5.78768 10.0441 5.87693 10.1333C5.96618 10.2226 6.07408 10.2676 6.20063 10.2685C6.32717 10.2693 6.43675 10.2239 6.52935 10.1321L9.2899 7.37155L9.2899 9.59155C9.2899 9.70887 9.33473 9.80818 9.4244 9.88948C9.51408 9.97077 9.61758 10.0114 9.7349 10.0114C9.85223 10.0114 9.95426 9.96804 10.041 9.8813C10.1277 9.79457 10.1699 9.69379 10.1673 9.57898L10.156 6.58839C10.1556 6.38516 10.0877 6.21587 9.95238 6.08053C9.81703 5.94518 9.64775 5.87772 9.44452 5.87814L6.44199 5.87751C6.32466 5.87751 6.22514 5.91836 6.14343 6.00007C6.06214 6.08137 6.02149 6.18067 6.02149 6.298C6.02149 6.41533 6.06507 6.51757 6.15223 6.60473C6.23939 6.69189 6.33995 6.73379 6.45393 6.73044L8.64942 6.73107ZM2.34894 13.6639C1.56703 12.882 0.979979 11.9982 0.587771 11.0127C0.1964 10.0271 0.000505105 9.02502 8.6165e-05 8.00637C-0.000333365 6.98772 0.194724 5.98604 0.585257 5.00132C0.975788 4.01661 1.56243 3.13289 2.34517 2.35015C3.12791 1.56741 4.01184 0.980559 4.99697 0.589607C5.9821 0.197818 6.98358 0.00129455 8.00139 3.73141e-05C9.01921 -0.00121976 10.0211 0.194047 11.0071 0.585836C11.993 0.977626 12.877 1.56447 13.6589 2.34637C14.4408 3.12828 15.0276 4.01221 15.4194 4.99818C15.8112 5.98331 16.0075 6.98499 16.0084 8.00323C16.0092 9.02146 15.8139 10.0234 15.4226 11.0089C15.0312 11.9945 14.4445 12.8782 13.6626 13.6601C12.8807 14.442 11.997 15.029 11.0115 15.4213C10.0259 15.8135 9.02382 16.0094 8.00516 16.0089C6.98651 16.0085 5.98483 15.8135 5.00012 15.4238C4.01541 15.0341 3.13168 14.4474 2.34894 13.6639ZM2.97559 13.0334C4.37933 14.4372 6.05543 15.139 8.00391 15.139C9.95238 15.139 11.6285 14.4372 13.0322 13.0334C14.436 11.6297 15.1378 9.95359 15.1378 8.00511C15.1378 6.05664 14.436 4.38054 13.0322 2.9768C11.6285 1.57306 9.95238 0.871193 8.00391 0.871193C6.05543 0.871193 4.37933 1.57306 2.97559 2.9768C1.57185 4.38054 0.869985 6.05664 0.869985 8.00511C0.869985 9.95359 1.57185 11.6297 2.97559 13.0334Z" fill="#3A3938"/>
</svg>
