<svg width="22" height="21" viewBox="0 0 22 21" fill="none" xmlns="http://www.w3.org/2000/svg">
<path d="M10.999 17.306L5.14863 20.8388C4.97672 20.9237 4.81717 20.958 4.66997 20.9419C4.52384 20.9247 4.38148 20.8742 4.24288 20.7904C4.1032 20.7045 3.9979 20.5831 3.92699 20.4262C3.85608 20.2693 3.84963 20.098 3.90765 19.9121L5.46452 13.2882L0.315256 8.82385C0.170207 8.70566 0.0745815 8.56437 0.0283806 8.39998C-0.0178204 8.23559 -0.00761313 8.07819 0.0590022 7.92776C0.125618 7.77734 0.214259 7.65378 0.324926 7.55708C0.436668 7.46361 0.58709 7.40021 0.776192 7.36691L7.57096 6.77381L10.2205 0.501227C10.2936 0.323945 10.3989 0.196085 10.5364 0.117651C10.6739 0.039217 10.8281 0 10.999 0C11.1698 0 11.3245 0.039217 11.4631 0.117651C11.6017 0.196085 11.7065 0.323945 11.7774 0.501227L14.427 6.77381L21.2201 7.36691C21.4103 7.39914 21.5613 7.46307 21.673 7.55869C21.7847 7.65324 21.8739 7.77627 21.9405 7.92776C22.0061 8.07819 22.0157 8.23559 21.9695 8.39998C21.9233 8.56437 21.8277 8.70566 21.6827 8.82385L16.5334 13.2882L18.0903 19.9121C18.1504 20.0958 18.1445 20.2666 18.0725 20.4246C18.0006 20.5825 17.8947 20.7039 17.755 20.7888C17.6175 20.8748 17.4752 20.9258 17.328 20.9419C17.1818 20.958 17.0228 20.9237 16.8509 20.8388L10.999 17.306Z" fill="#3A3938"/>
</svg>
