<svg width="22" height="22" viewBox="0 0 22 22" fill="none" xmlns="http://www.w3.org/2000/svg">
<path d="M1.53914 3.41669H18.4437C19.9749 3.41669 21.0804 4.82781 20.6604 6.24782L18.8226 12.4701C18.5393 13.4257 17.6348 14.0834 16.6059 14.0834H6.43029C5.40029 14.0834 4.49472 13.4246 4.2125 12.4701L1.53914 3.41669ZM1.53914 3.41669L0.750244 0.75M15.7504 20.7502C16.1924 20.7502 16.6163 20.5746 16.9289 20.262C17.2415 19.9494 17.4171 19.5255 17.4171 19.0835C17.4171 18.6415 17.2415 18.2175 16.9289 17.905C16.6163 17.5924 16.1924 17.4168 15.7504 17.4168C15.3083 17.4168 14.8844 17.5924 14.5719 17.905C14.2593 18.2175 14.0837 18.6415 14.0837 19.0835C14.0837 19.5255 14.2593 19.9494 14.5719 20.262C14.8844 20.5746 15.3083 20.7502 15.7504 20.7502ZM6.86141 20.7502C7.30344 20.7502 7.72737 20.5746 8.03993 20.262C8.35249 19.9494 8.52809 19.5255 8.52809 19.0835C8.52809 18.6415 8.35249 18.2175 8.03993 17.905C7.72737 17.5924 7.30344 17.4168 6.86141 17.4168C6.41938 17.4168 5.99545 17.5924 5.68289 17.905C5.37032 18.2175 5.19473 18.6415 5.19473 19.0835C5.19473 19.5255 5.37032 19.9494 5.68289 20.262C5.99545 20.5746 6.41938 20.7502 6.86141 20.7502Z" stroke="white" stroke-width="1.5" stroke-linecap="round" stroke-linejoin="round"/>
</svg>
