<svg width="16" height="16" viewBox="0 0 16 16" fill="none" xmlns="http://www.w3.org/2000/svg">
<path d="M15.0082 8.00003L15.8925 6.47178C15.9988 6.28792 16.0277 6.06937 15.9728 5.86419C15.918 5.65902 15.784 5.48402 15.6001 5.37766L14.0703 4.4934V2.73127C14.0703 2.51884 13.9859 2.31511 13.8357 2.1649C13.6855 2.01469 13.4818 1.93031 13.2693 1.93031H11.508L10.6245 0.401262C10.5184 0.217305 10.3435 0.083046 10.1384 0.0280118C10.0367 0.000780191 9.93073 -0.00616222 9.82642 0.007581C9.72211 0.0213242 9.62152 0.0554839 9.53042 0.108109L8.00057 0.992375L6.47073 0.107307C6.28676 0.00109747 6.06814 -0.0276849 5.86296 0.0272917C5.65777 0.0822683 5.48283 0.216501 5.37661 0.400461L4.49234 1.93031H2.73102C2.51859 1.93031 2.31486 2.01469 2.16465 2.1649C2.01444 2.31511 1.93005 2.51884 1.93005 2.73127V4.4926L0.400206 5.37686C0.309079 5.42952 0.229224 5.49963 0.165205 5.58317C0.101187 5.66671 0.0542616 5.76205 0.0271105 5.86374C-4.06368e-05 5.96542 -0.00688459 6.07146 0.00696975 6.1758C0.0208241 6.28013 0.055105 6.38071 0.107853 6.47178L0.99212 8.00003L0.107853 9.52827C0.00211654 9.71231 -0.0265715 9.93069 0.0280435 10.1358C0.0826586 10.3409 0.216147 10.5161 0.399405 10.6232L1.92925 11.5075V13.2688C1.92925 13.4812 2.01364 13.6849 2.16385 13.8352C2.31406 13.9854 2.51779 14.0697 2.73022 14.0697H4.49234L5.37661 15.5996C5.44752 15.7208 5.54877 15.8215 5.67039 15.8917C5.79201 15.9619 5.92981 15.9993 6.07025 16.0001C6.20961 16.0001 6.34818 15.9632 6.47153 15.8919L7.99977 15.0077L9.52962 15.8919C9.71349 15.9982 9.93203 16.0271 10.1372 15.9723C10.3424 15.9175 10.5174 15.7834 10.6237 15.5996L11.5072 14.0697H13.2685C13.481 14.0697 13.6847 13.9854 13.8349 13.8352C13.9851 13.6849 14.0695 13.4812 14.0695 13.2688V11.5075L15.5993 10.6232C15.6905 10.5705 15.7703 10.5004 15.8343 10.4169C15.8984 10.3333 15.9453 10.238 15.9724 10.1363C15.9996 10.0346 16.0064 9.92859 15.9926 9.82426C15.9787 9.71993 15.9444 9.61935 15.8917 9.52827L15.0082 8.00003ZM5.99736 3.98719C6.31611 3.98729 6.62176 4.11402 6.84708 4.33948C7.07239 4.56495 7.19891 4.87069 7.19881 5.18944C7.1987 5.50819 7.07198 5.81384 6.84651 6.03916C6.62104 6.26447 6.31531 6.39099 5.99656 6.39089C5.67781 6.39078 5.37215 6.26406 5.14684 6.03859C4.92152 5.81312 4.795 5.50739 4.79511 5.18864C4.79521 4.86989 4.92194 4.56423 5.1474 4.33892C5.37287 4.1136 5.67861 3.98708 5.99736 3.98719ZM6.23765 11.6765L4.9561 10.7161L9.7619 4.30837L11.0434 5.26873L6.23765 11.6765ZM10.0022 11.9968C9.84436 11.9968 9.68809 11.9657 9.54229 11.9052C9.3965 11.8448 9.26403 11.7562 9.15247 11.6446C9.0409 11.5329 8.95242 11.4004 8.89207 11.2546C8.83172 11.1087 8.80069 10.9524 8.80074 10.7946C8.80079 10.6368 8.83193 10.4805 8.89238 10.3347C8.95282 10.1889 9.0414 10.0564 9.15304 9.94488C9.26468 9.83331 9.39719 9.74483 9.54303 9.68448C9.68887 9.62413 9.84516 9.5931 10.003 9.59315C10.3217 9.59326 10.6274 9.71998 10.8527 9.94545C11.078 10.1709 11.2045 10.4766 11.2044 10.7954C11.2043 11.1142 11.0776 11.4198 10.8521 11.6451C10.6267 11.8704 10.3209 11.997 10.0022 11.9968Z" fill="#4FAE32"/>
</svg>
