<svg width="12" height="12" viewBox="0 0 12 12" fill="none" xmlns="http://www.w3.org/2000/svg">
<path d="M11.1933 5.53569H3.99679M1.45662 5.53569H0.41748M1.45662 5.53569C1.45662 5.19892 1.5904 4.87594 1.82853 4.63781C2.06666 4.39968 2.38964 4.2659 2.72641 4.2659C3.06318 4.2659 3.38616 4.39968 3.6243 4.63781C3.86243 4.87594 3.99621 5.19892 3.99621 5.53569C3.99621 5.87246 3.86243 6.19544 3.6243 6.43357C3.38616 6.67171 3.06318 6.80549 2.72641 6.80549C2.38964 6.80549 2.06666 6.67171 1.82853 6.43357C1.5904 6.19544 1.45662 5.87246 1.45662 5.53569ZM11.1933 9.38411H7.84521M7.84521 9.38411C7.84521 9.72096 7.7111 10.0443 7.47292 10.2825C7.23473 10.5207 6.91168 10.6545 6.57483 10.6545C6.23806 10.6545 5.91508 10.5201 5.67695 10.282C5.43881 10.0439 5.30503 9.72088 5.30503 9.38411M7.84521 9.38411C7.84521 9.04726 7.7111 8.7245 7.47292 8.48631C7.23473 8.24812 6.91168 8.11431 6.57483 8.11431C6.23806 8.11431 5.91508 8.24809 5.67695 8.48623C5.43881 8.72436 5.30503 9.04734 5.30503 9.38411M5.30503 9.38411H0.41748M11.1933 1.68728H9.38469M6.84452 1.68728H0.41748M6.84452 1.68728C6.84452 1.35051 6.9783 1.02753 7.21643 0.789395C7.45456 0.551262 7.77754 0.41748 8.11431 0.41748C8.28106 0.41748 8.44618 0.450325 8.60024 0.514138C8.7543 0.577951 8.89428 0.671484 9.01219 0.789395C9.1301 0.907307 9.22364 1.04729 9.28745 1.20135C9.35126 1.35541 9.38411 1.52053 9.38411 1.68728C9.38411 1.85403 9.35126 2.01915 9.28745 2.17321C9.22364 2.32727 9.1301 2.46725 9.01219 2.58516C8.89428 2.70307 8.7543 2.7966 8.60024 2.86042C8.44618 2.92423 8.28106 2.95707 8.11431 2.95707C7.77754 2.95707 7.45456 2.82329 7.21643 2.58516C6.9783 2.34703 6.84452 2.02405 6.84452 1.68728Z" stroke="#3A3938" stroke-width="0.835205" stroke-miterlimit="10" stroke-linecap="round"/>
</svg>
